<svg width="512" height="512" viewBox="0 0 512 512" fill="none" xmlns="http://www.w3.org/2000/svg">
<rect width="512" height="512" fill="#1E1E1E"/>
<circle cx="256" cy="256" r="225" fill="url(#paint0_linear_2039_2)"/>
<path d="M101.088 254.469H128.029C132.455 254.469 136.193 252.986 139.244 250.021C142.338 247.014 143.885 242.781 143.885 237.324C143.885 233.242 142.273 229.59 139.051 226.367C135.828 223.102 132.154 221.469 128.029 221.469H88.1973V305H83.5566V216.828H128.029C133.443 216.828 138.213 218.912 142.338 223.08C146.463 227.248 148.525 231.996 148.525 237.324C148.525 243.898 146.527 249.184 142.531 253.18C138.535 257.133 133.701 259.109 128.029 259.109H101.088V254.469ZM101.088 263.75H128.029C132.498 263.75 136.623 262.676 140.404 260.527C144.229 258.336 147.301 255.199 149.621 251.117C151.984 247.035 153.166 242.438 153.166 237.324C153.166 230.707 150.631 224.863 145.561 219.793C140.533 214.723 134.689 212.188 128.029 212.188H78.916V305H74.2754V207.547H128.029C133.229 207.547 138.127 208.922 142.725 211.672C147.322 214.422 150.975 218.096 153.682 222.693C156.432 227.291 157.807 232.168 157.807 237.324C157.807 243.168 156.432 248.496 153.682 253.309C150.932 258.078 147.279 261.795 142.725 264.459C138.213 267.08 133.314 268.391 128.029 268.391H101.088V263.75ZM101.088 273.031H128.029C132.627 273.031 137.031 272.129 141.242 270.324C145.453 268.477 149.105 266.006 152.199 262.912C155.336 259.775 157.828 255.994 159.676 251.568C161.523 247.1 162.447 242.352 162.447 237.324C162.447 231.309 160.879 225.658 157.742 220.373C154.605 215.045 150.373 210.812 145.045 207.676C139.76 204.496 134.088 202.906 128.029 202.906H69.6348V305H64.9941V198.266H128.029C134.904 198.266 141.35 200.07 147.365 203.68C153.381 207.246 158.172 212.037 161.738 218.053C165.305 224.068 167.088 230.492 167.088 237.324C167.088 243.426 166.035 249.055 163.93 254.211C161.824 259.324 158.988 263.578 155.422 266.973C151.855 270.367 147.709 273.01 142.982 274.9C138.256 276.748 133.271 277.672 128.029 277.672H101.088V273.031ZM97.4785 305H92.8379V226.109H128.029C131.08 226.109 133.701 227.227 135.893 229.461C138.127 231.695 139.244 234.316 139.244 237.324C139.244 245.66 135.506 249.828 128.029 249.828H101.088V245.188H128.029C130.092 245.188 131.703 244.607 132.863 243.447C134.023 242.287 134.604 240.246 134.604 237.324C134.604 235.434 133.959 233.865 132.67 232.619C131.424 231.373 129.877 230.75 128.029 230.75H97.4785V305ZM205.115 198.266H209.756V305H205.115V198.266ZM195.834 198.266H200.475V305H195.834V198.266ZM186.553 198.266H191.193V305H186.553V198.266ZM177.271 198.266H181.912V305H177.271V198.266ZM297.799 253.631L293.158 245.961V198.266H297.799V253.631ZM307.08 268.842L302.439 261.043V198.266H307.08V268.842ZM316.361 284.246L311.721 276.383V198.266H316.361V284.246ZM249.846 249.635L254.486 257.305V305H249.846V249.635ZM240.564 234.424L245.205 242.223V305H240.564V234.424ZM231.283 219.02L235.924 226.883V305H231.283V219.02ZM232.895 198.266H238.309L303.922 305H298.508L232.895 198.266ZM243.852 198.266H249.33L314.879 305H309.336L243.852 198.266ZM254.744 198.266H260.158L321.002 297.459V198.266H325.643V305C325.643 305 323.816 305 320.164 305L254.744 198.266ZM226.643 205.807V305H222.002V198.266C222.002 198.266 223.85 198.266 227.545 198.266L292.965 305H287.615L226.643 205.807ZM423.16 249.248H427.801V305H423.16V249.248ZM441.723 249.248H446.363V305H441.723V249.248ZM432.441 249.248H437.082V305H432.441V249.248ZM418.52 249.248V305C410.355 308.094 401.891 309.641 393.125 309.641C385.52 309.641 378.236 308.244 371.275 305.451C364.314 302.658 358.191 298.791 352.906 293.85C347.621 288.865 343.389 282.721 340.209 275.416C337.072 268.068 335.504 260.141 335.504 251.633C335.504 243.77 337.029 236.271 340.08 229.139C343.174 221.963 347.299 215.797 352.455 210.641C357.654 205.441 363.82 201.316 370.953 198.266C378.129 195.172 385.648 193.625 393.512 193.625C403.309 193.625 412.418 195.902 420.84 200.457C429.262 205.012 436.137 211.199 441.465 219.02L437.598 221.533C432.699 214.357 426.361 208.686 418.584 204.518C410.85 200.35 402.492 198.266 393.512 198.266C386.293 198.266 379.375 199.684 372.758 202.52C366.184 205.312 360.512 209.094 355.742 213.863C350.973 218.633 347.17 224.326 344.334 230.943C341.541 237.518 340.145 244.414 340.145 251.633C340.145 259.41 341.584 266.672 344.463 273.418C347.385 280.164 351.252 285.814 356.064 290.369C360.92 294.924 366.549 298.512 372.951 301.133C379.354 303.711 386.014 305 392.932 305C400.193 305 407.176 303.861 413.879 301.584V297.137C407.477 299.285 400.752 300.359 393.705 300.359C388.592 300.359 383.607 299.65 378.752 298.232C373.939 296.771 369.471 294.645 365.346 291.852C361.264 289.016 357.676 285.664 354.582 281.797C351.531 277.887 349.125 273.354 347.363 268.197C345.645 262.998 344.785 257.477 344.785 251.633C344.785 242.824 346.955 234.682 351.295 227.205C355.678 219.729 361.607 213.82 369.084 209.48C376.561 205.098 384.703 202.906 393.512 202.906C401.762 202.906 409.432 204.84 416.521 208.707C423.611 212.531 429.391 217.73 433.859 224.305L429.992 226.818C425.953 220.889 420.711 216.205 414.266 212.768C407.863 209.287 400.945 207.547 393.512 207.547C387.539 207.547 381.824 208.707 376.367 211.027C370.91 213.348 366.205 216.484 362.252 220.438C358.342 224.348 355.227 229.031 352.906 234.488C350.586 239.945 349.426 245.66 349.426 251.633C349.426 257.004 350.199 262.053 351.746 266.779C353.336 271.463 355.506 275.566 358.256 279.09C361.049 282.57 364.293 285.578 367.988 288.113C371.684 290.605 375.701 292.496 380.041 293.785C384.424 295.074 388.914 295.719 393.512 295.719C400.645 295.719 407.434 294.516 413.879 292.109V287.469C407.52 289.918 400.881 291.143 393.963 291.143C388.721 291.143 383.715 290.262 378.945 288.5C374.176 286.695 369.922 284.16 366.184 280.895C362.488 277.629 359.545 273.461 357.354 268.391C355.162 263.32 354.066 257.734 354.066 251.633C354.066 244.5 355.828 237.904 359.352 231.846C362.875 225.787 367.666 220.996 373.725 217.473C379.783 213.949 386.379 212.188 393.512 212.188C400.172 212.188 406.359 213.734 412.074 216.828C417.832 219.922 422.516 224.133 426.125 229.461L422.258 231.975C419.078 227.334 414.953 223.66 409.883 220.953C404.855 218.203 399.398 216.828 393.512 216.828C387.195 216.828 381.373 218.396 376.045 221.533C370.717 224.627 366.484 228.838 363.348 234.166C360.254 239.494 358.707 245.316 358.707 251.633C358.707 256.016 359.33 260.098 360.576 263.879C361.822 267.66 363.541 270.926 365.732 273.676C367.924 276.426 370.48 278.768 373.402 280.701C376.367 282.635 379.547 284.096 382.941 285.084C386.336 286.029 389.859 286.502 393.512 286.502C400.773 286.502 407.562 285.062 413.879 282.184V277.736C407.777 280.443 401.182 281.797 394.092 281.797C390.01 281.797 386.164 281.174 382.555 279.928C378.945 278.682 375.68 276.855 372.758 274.449C369.879 272.043 367.58 268.885 365.861 264.975C364.186 261.021 363.348 256.574 363.348 251.633C363.348 247.551 364.143 243.662 365.732 239.967C367.322 236.229 369.471 233.006 372.178 230.299C374.885 227.592 378.086 225.443 381.781 223.854C385.52 222.264 389.43 221.469 393.512 221.469C398.625 221.469 403.373 222.672 407.756 225.078C412.139 227.441 415.705 230.664 418.455 234.746L414.652 237.26C412.332 233.822 409.303 231.115 405.564 229.139C401.869 227.119 397.852 226.109 393.512 226.109C386.465 226.109 380.449 228.602 375.465 233.586C370.48 238.57 367.988 244.586 367.988 251.633C367.988 255.973 368.697 259.818 370.115 263.17C371.533 266.479 373.467 269.143 375.916 271.162C378.408 273.139 381.158 274.643 384.166 275.674C387.217 276.662 390.482 277.156 393.963 277.156C401.096 277.156 407.734 275.674 413.879 272.709V249.248H418.52Z" fill="black"/>
<defs>
<linearGradient id="paint0_linear_2039_2" x1="256" y1="31" x2="256" y2="481" gradientUnits="userSpaceOnUse">
<stop stop-color="#FFDD00"/>
<stop offset="0.476755" stop-color="#E0C200"/>
<stop offset="1" stop-color="#F10E0E"/>
</linearGradient>
</defs>
</svg>
